<svg id="icons" xmlns="http://www.w3.org/2000/svg" viewBox="0 0 20 20"><path d="M10.5 0C8.57 0 7 .75 7 2.68v6.39l3.5 3.51L14 9.07V2.68C14 .74 12.43 0 10.5 0zM13 8.67l-2.5 2.51L8 8.67V2.68C8 2.26 8 1 10.5 1S13 2.27 13 2.68v5.98z"/><path d="M10.5 3C9.67 3 9 3.67 9 4.5S9.67 6 10.5 6 12 5.33 12 4.5 11.33 3 10.5 3zm0 2c-.28 0-.5-.22-.5-.5s.22-.5.5-.5.5.22.5.5-.22.5-.5.5z"/><path d="M14.93 12l-.86.77c1.31.57 2.15 1.44 2.15 2.42 0 1.71-2.57 3.1-5.73 3.1s-5.73-1.39-5.73-3.1c0-.98.84-1.85 2.16-2.42L6.06 12c-1.84.81-3.04 2.1-3.04 3.56 0 2.45 3.35 4.44 7.47 4.44s7.47-1.99 7.47-4.44c0-1.46-1.2-2.76-3.04-3.56z"/><path d="M10.5 16c1.1 0 2-.45 2-1s-.9-1-2-1-2 .45-2 1 .9 1 2 1z"/><path fill="none" d="M0 0h20v20H0z"/></svg>