<?xml version="1.0" encoding="UTF-8"?>
<svg id="Layer_1" data-name="Layer 1" xmlns="http://www.w3.org/2000/svg" viewBox="0 0 320 372.56">
  <defs>
    <style>
      .cls-1 {
        fill: #fff;
        stroke-width: 0px;
      }
    </style>
  </defs>
  <path class="cls-1" d="M191.78,259.92c0,11.65-14.11,21.09-31.52,21.09s-31.52-9.44-31.52-21.09,14.12-21.07,31.52-21.07,31.52,9.42,31.52,21.07ZM254.95,181.42l-18.44,18.43c28.08,13.55,46.11,34.37,46.11,57.76,0,40.86-54.9,73.98-122.62,73.98s-122.62-33.12-122.62-73.98c0-23.39,18.06-44.22,46.17-57.78l-18.44-18.45C25.68,200.69,0,231.62,0,266.58c0,58.54,71.64,105.98,160,105.98s160-47.44,160-105.98c0-34.94-25.66-65.86-65.05-85.15ZM224,48.64v110l-63.96,64-64-64V48.64C96.04,13.5,124.9,0,160.04,0s63.96,13.5,63.96,48.64ZM194.71,77.33c0-18.93-15.75-34.67-34.67-34.67s-34.67,15.74-34.67,34.67,15.75,34.67,34.67,34.67,34.67-15.74,34.67-34.67Z"/>
  <path class="cls-1" d="M191.78,259.92c0,11.65-14.11,21.09-31.52,21.09s-31.52-9.44-31.52-21.09,14.12-21.07,31.52-21.07,31.52,9.42,31.52,21.07ZM254.95,181.42l-18.44,18.43c28.08,13.55,46.11,34.37,46.11,57.76,0,40.86-54.9,73.98-122.62,73.98s-122.62-33.12-122.62-73.98c0-23.39,18.06-44.22,46.17-57.78l-18.44-18.45C25.68,200.69,0,231.62,0,266.58c0,58.54,71.64,105.98,160,105.98s160-47.44,160-105.98c0-34.94-25.66-65.86-65.05-85.15ZM224,48.64v110l-63.96,64-64-64V48.64C96.04,13.5,124.9,0,160.04,0s63.96,13.5,63.96,48.64ZM194.71,77.33c0-18.93-15.75-34.67-34.67-34.67s-34.67,15.74-34.67,34.67,15.75,34.67,34.67,34.67,34.67-15.74,34.67-34.67Z"/>
</svg>