<?xml version="1.0" encoding="utf-8"?>
<!-- Generator: Adobe Illustrator 21.0.0, SVG Export Plug-In . SVG Version: 6.00 Build 0)  -->
<svg version="1.1" xmlns="http://www.w3.org/2000/svg" xmlns:xlink="http://www.w3.org/1999/xlink" x="0px" y="0px" width="32px"
	 height="32px" viewBox="0 0 32 32" enable-background="new 0 0 32 32" xml:space="preserve">
<g id="icon_Name">
</g>
<g id="icons">
	<path fill="#FFFFFF" d="M26,8h-4l-4-4h-6l-2,4H2l8,5l-6,5l6,6h8l6,4v-8l2-2h4L26,8z M25.5859375,17L23,19.5859375v6.5454102
		L18.3027344,23h-7.8886719l-4.9326172-4.9326172l6.2197266-5.1835938L5.4863281,9h5.1318359l2-4h4.9677734l4,4h3.7373047
		l3.2001953,8H25.5859375z M23.9692383,11l1.5996094,4h-0.8110352L21,18.7578125v3.6367188L18.9082031,21h-7.6660156
		l-2.7978516-2.7978516l6.6591797-5.5507812l-3.1049805-1.9404297L13.8544922,7h2.9033203l4,4H23.9692383z"/>
</g>
</svg>
