<?xml version="1.0" encoding="UTF-8"?>
<!DOCTYPE svg PUBLIC "-//W3C//DTD SVG 1.1//EN" "http://www.w3.org/Graphics/SVG/1.1/DTD/svg11.dtd">
<svg xmlns="http://www.w3.org/2000/svg" version="1.1" width="546px" height="342px" style="shape-rendering:geometricPrecision; text-rendering:geometricPrecision; image-rendering:optimizeQuality; fill-rule:evenodd; clip-rule:evenodd" xmlns:xlink="http://www.w3.org/1999/xlink">
<g><path style="opacity:1" fill="#171717" d="M -0.5,-0.5 C 181.5,-0.5 363.5,-0.5 545.5,-0.5C 545.5,113.5 545.5,227.5 545.5,341.5C 543.167,341.5 540.833,341.5 538.5,341.5C 538.5,230.5 538.5,119.5 538.5,8.5C 358.833,8.5 179.167,8.5 -0.5,8.5C -0.5,5.5 -0.5,2.5 -0.5,-0.5 Z"/></g>
<g><path style="opacity:1" fill="#282827" d="M -0.5,8.5 C 179.167,8.5 358.833,8.5 538.5,8.5C 538.5,119.5 538.5,230.5 538.5,341.5C 358.833,341.5 179.167,341.5 -0.5,341.5C -0.5,230.5 -0.5,119.5 -0.5,8.5 Z"/></g>
<g><path style="opacity:1" fill="#696969" d="M 376.5,23.5 C 382.5,23.5 388.5,23.5 394.5,23.5C 394.5,59.5 394.5,95.5 394.5,131.5C 388.5,131.5 382.5,131.5 376.5,131.5C 376.5,95.5 376.5,59.5 376.5,23.5 Z"/></g>
<g><path style="opacity:1" fill="#696969" d="M 58.5,53.5 C 127.5,53.5 196.5,53.5 265.5,53.5C 265.5,54.5 265.5,55.5 265.5,56.5C 196.5,56.5 127.5,56.5 58.5,56.5C 58.5,55.5 58.5,54.5 58.5,53.5 Z"/></g>
<g><path style="opacity:1" fill="#696969" d="M 415.5,62.5 C 421.5,62.5 427.5,62.5 433.5,62.5C 433.5,85.5 433.5,108.5 433.5,131.5C 427.5,131.5 421.5,131.5 415.5,131.5C 415.5,108.5 415.5,85.5 415.5,62.5 Z"/></g>
<g><path style="opacity:1" fill="#696969" d="M 58.5,77.5 C 127.5,77.5 196.5,77.5 265.5,77.5C 265.5,78.5 265.5,79.5 265.5,80.5C 196.5,80.5 127.5,80.5 58.5,80.5C 58.5,79.5 58.5,78.5 58.5,77.5 Z"/></g>
<g><path style="opacity:1" fill="#696969" d="M 457.5,80.5 C 463.5,80.5 469.5,80.5 475.5,80.5C 475.5,98.5 475.5,116.5 475.5,134.5C 469.5,134.5 463.5,134.5 457.5,134.5C 457.5,116.5 457.5,98.5 457.5,80.5 Z"/></g>
<g><path style="opacity:1" fill="#696969" d="M 334.5,95.5 C 340.5,95.5 346.5,95.5 352.5,95.5C 352.5,107.5 352.5,119.5 352.5,131.5C 346.5,131.5 340.5,131.5 334.5,131.5C 334.5,119.5 334.5,107.5 334.5,95.5 Z"/></g>
<g><path style="opacity:1" fill="#696969" d="M 58.5,101.5 C 127.5,101.5 196.5,101.5 265.5,101.5C 265.5,102.5 265.5,103.5 265.5,104.5C 196.5,104.5 127.5,104.5 58.5,104.5C 58.5,103.5 58.5,102.5 58.5,101.5 Z"/></g>
<g><path style="opacity:1" fill="#696969" d="M 58.5,125.5 C 127.5,125.5 196.5,125.5 265.5,125.5C 265.5,126.5 265.5,127.5 265.5,128.5C 196.5,128.5 127.5,128.5 58.5,128.5C 58.5,127.5 58.5,126.5 58.5,125.5 Z"/></g>
<g><path style="opacity:1" fill="#696969" d="M 61.5,191.5 C 129.5,191.5 197.5,191.5 265.5,191.5C 265.5,227.5 265.5,263.5 265.5,299.5C 197.5,299.5 129.5,299.5 61.5,299.5C 61.5,263.5 61.5,227.5 61.5,191.5 Z"/></g>
<g><path style="opacity:1" fill="#4c4c4c" d="M 388.5,191.5 C 388.5,192.5 388.5,193.5 388.5,194.5C 386.5,194.5 384.5,194.5 382.5,194.5C 382.5,193.5 382.5,192.5 382.5,191.5C 384.5,191.5 386.5,191.5 388.5,191.5 Z"/></g>
<g><path style="opacity:1" fill="#696969" d="M 388.5,191.5 C 393.5,191.5 398.5,191.5 403.5,191.5C 403.5,192.5 403.5,193.5 403.5,194.5C 406.5,194.5 409.5,194.5 412.5,194.5C 414.5,194.5 416.5,194.5 418.5,194.5C 418.5,195.5 418.5,196.5 418.5,197.5C 419.5,197.5 420.5,197.5 421.5,197.5C 422.5,197.5 423.5,197.5 424.5,197.5C 424.5,198.5 424.5,199.5 424.5,200.5C 425.5,200.5 426.5,200.5 427.5,200.5C 427.5,201.5 427.5,202.5 427.5,203.5C 428.5,203.5 429.5,203.5 430.5,203.5C 431.5,203.5 432.5,203.5 433.5,203.5C 433.5,204.5 433.5,205.5 433.5,206.5C 434.5,206.5 435.5,206.5 436.5,206.5C 436.5,207.5 436.5,208.5 436.5,209.5C 437.5,209.5 438.5,209.5 439.5,209.5C 439.5,210.5 439.5,211.5 439.5,212.5C 439.5,213.5 439.5,214.5 439.5,215.5C 440.5,215.5 441.5,215.5 442.5,215.5C 442.5,216.5 442.5,217.5 442.5,218.5C 443.5,218.5 444.5,218.5 445.5,218.5C 445.5,219.5 445.5,220.5 445.5,221.5C 445.5,222.5 445.5,223.5 445.5,224.5C 446.5,224.5 447.5,224.5 448.5,224.5C 448.5,226.5 448.5,228.5 448.5,230.5C 448.5,232.5 448.5,234.5 448.5,236.5C 449.5,236.5 450.5,236.5 451.5,236.5C 451.5,242.5 451.5,248.5 451.5,254.5C 450.5,254.5 449.5,254.5 448.5,254.5C 448.5,256.5 448.5,258.5 448.5,260.5C 448.5,262.5 448.5,264.5 448.5,266.5C 447.5,266.5 446.5,266.5 445.5,266.5C 445.5,267.5 445.5,268.5 445.5,269.5C 445.5,270.5 445.5,271.5 445.5,272.5C 444.5,272.5 443.5,272.5 442.5,272.5C 442.5,273.5 442.5,274.5 442.5,275.5C 441.5,275.5 440.5,275.5 439.5,275.5C 439.5,276.5 439.5,277.5 439.5,278.5C 439.5,279.5 439.5,280.5 439.5,281.5C 438.5,281.5 437.5,281.5 436.5,281.5C 436.5,282.5 436.5,283.5 436.5,284.5C 435.5,284.5 434.5,284.5 433.5,284.5C 433.5,285.5 433.5,286.5 433.5,287.5C 432.5,287.5 431.5,287.5 430.5,287.5C 429.5,287.5 428.5,287.5 427.5,287.5C 427.5,288.5 427.5,289.5 427.5,290.5C 426.5,290.5 425.5,290.5 424.5,290.5C 424.5,291.5 424.5,292.5 424.5,293.5C 423.5,293.5 422.5,293.5 421.5,293.5C 420.5,293.5 419.5,293.5 418.5,293.5C 418.5,294.5 418.5,295.5 418.5,296.5C 415.5,296.5 412.5,296.5 409.5,296.5C 407.5,296.5 405.5,296.5 403.5,296.5C 403.5,297.5 403.5,298.5 403.5,299.5C 398.5,299.5 393.5,299.5 388.5,299.5C 388.5,298.5 388.5,297.5 388.5,296.5C 386.5,296.5 384.5,296.5 382.5,296.5C 380.5,296.5 378.5,296.5 376.5,296.5C 376.5,295.5 376.5,294.5 376.5,293.5C 375.5,293.5 374.5,293.5 373.5,293.5C 372.5,293.5 371.5,293.5 370.5,293.5C 370.5,292.5 370.5,291.5 370.5,290.5C 369.5,290.5 368.5,290.5 367.5,290.5C 367.5,289.5 367.5,288.5 367.5,287.5C 366.5,287.5 365.5,287.5 364.5,287.5C 363.5,287.5 362.5,287.5 361.5,287.5C 361.5,286.5 361.5,285.5 361.5,284.5C 360.5,284.5 359.5,284.5 358.5,284.5C 358.5,283.5 358.5,282.5 358.5,281.5C 357.5,281.5 356.5,281.5 355.5,281.5C 355.5,280.5 355.5,279.5 355.5,278.5C 355.5,277.5 355.5,276.5 355.5,275.5C 354.5,275.5 353.5,275.5 352.5,275.5C 352.5,274.5 352.5,273.5 352.5,272.5C 351.5,272.5 350.5,272.5 349.5,272.5C 349.5,271.5 349.5,270.5 349.5,269.5C 349.5,268.5 349.5,267.5 349.5,266.5C 348.5,266.5 347.5,266.5 346.5,266.5C 346.5,263.5 346.5,260.5 346.5,257.5C 346.5,255.5 346.5,253.5 346.5,251.5C 345.5,251.5 344.5,251.5 343.5,251.5C 343.5,246.5 343.5,241.5 343.5,236.5C 344.5,236.5 345.5,236.5 346.5,236.5C 346.5,234.5 346.5,232.5 346.5,230.5C 346.5,228.5 346.5,226.5 346.5,224.5C 347.5,224.5 348.5,224.5 349.5,224.5C 349.5,223.5 349.5,222.5 349.5,221.5C 349.5,220.5 349.5,219.5 349.5,218.5C 350.5,218.5 351.5,218.5 352.5,218.5C 352.5,217.5 352.5,216.5 352.5,215.5C 353.5,215.5 354.5,215.5 355.5,215.5C 355.5,214.5 355.5,213.5 355.5,212.5C 355.5,211.5 355.5,210.5 355.5,209.5C 356.5,209.5 357.5,209.5 358.5,209.5C 358.5,208.5 358.5,207.5 358.5,206.5C 359.5,206.5 360.5,206.5 361.5,206.5C 361.5,205.5 361.5,204.5 361.5,203.5C 362.5,203.5 363.5,203.5 364.5,203.5C 365.5,203.5 366.5,203.5 367.5,203.5C 367.5,202.5 367.5,201.5 367.5,200.5C 368.5,200.5 369.5,200.5 370.5,200.5C 370.5,199.5 370.5,198.5 370.5,197.5C 371.5,197.5 372.5,197.5 373.5,197.5C 374.5,197.5 375.5,197.5 376.5,197.5C 376.5,196.5 376.5,195.5 376.5,194.5C 378.5,194.5 380.5,194.5 382.5,194.5C 384.5,194.5 386.5,194.5 388.5,194.5C 388.5,193.5 388.5,192.5 388.5,191.5 Z"/></g>
<g><path style="opacity:1" fill="#505050" d="M 403.5,191.5 C 406.5,191.5 409.5,191.5 412.5,191.5C 412.5,192.5 412.5,193.5 412.5,194.5C 409.5,194.5 406.5,194.5 403.5,194.5C 403.5,193.5 403.5,192.5 403.5,191.5 Z"/></g>
<g><path style="opacity:1" fill="#3e3e3e" d="M 376.5,194.5 C 376.5,195.5 376.5,196.5 376.5,197.5C 375.5,197.5 374.5,197.5 373.5,197.5C 373.5,196.5 373.5,195.5 373.5,194.5C 374.5,194.5 375.5,194.5 376.5,194.5 Z"/></g>
<g><path style="opacity:1" fill="#3e3e3e" d="M 418.5,194.5 C 419.5,194.5 420.5,194.5 421.5,194.5C 421.5,195.5 421.5,196.5 421.5,197.5C 421.5,196.5 421.5,195.5 421.5,194.5C 420.5,194.5 419.5,194.5 418.5,194.5 Z"/></g>
<g><path style="opacity:1" fill="#4f4f4f" d="M 367.5,200.5 C 367.5,201.5 367.5,202.5 367.5,203.5C 366.5,203.5 365.5,203.5 364.5,203.5C 364.5,202.5 364.5,201.5 364.5,200.5C 365.5,200.5 366.5,200.5 367.5,200.5 Z"/></g>
<g><path style="opacity:1" fill="#4f4f4f" d="M 427.5,200.5 C 428.5,200.5 429.5,200.5 430.5,200.5C 430.5,201.5 430.5,202.5 430.5,203.5C 430.5,202.5 430.5,201.5 430.5,200.5C 429.5,200.5 428.5,200.5 427.5,200.5 Z"/></g>
<g><path style="opacity:1" fill="#4f504f" d="M 355.5,212.5 C 355.5,213.5 355.5,214.5 355.5,215.5C 354.5,215.5 353.5,215.5 352.5,215.5C 352.5,214.5 352.5,213.5 352.5,212.5C 353.5,212.5 354.5,212.5 355.5,212.5 Z"/></g>
<g><path style="opacity:1" fill="#4f4f4f" d="M 439.5,212.5 C 440.5,212.5 441.5,212.5 442.5,212.5C 442.5,213.5 442.5,214.5 442.5,215.5C 442.5,214.5 442.5,213.5 442.5,212.5C 441.5,212.5 440.5,212.5 439.5,212.5 Z"/></g>
<g><path style="opacity:1" fill="#3e3f3e" d="M 349.5,221.5 C 349.5,222.5 349.5,223.5 349.5,224.5C 348.5,224.5 347.5,224.5 346.5,224.5C 346.5,223.5 346.5,222.5 346.5,221.5C 347.5,221.5 348.5,221.5 349.5,221.5 Z"/></g>
<g><path style="opacity:1" fill="#3f3f3e" d="M 445.5,221.5 C 446.5,221.5 447.5,221.5 448.5,221.5C 448.5,222.5 448.5,223.5 448.5,224.5C 448.5,223.5 448.5,222.5 448.5,221.5C 447.5,221.5 446.5,221.5 445.5,221.5 Z"/></g>
<g><path style="opacity:1" fill="#4c4c4c" d="M 346.5,230.5 C 346.5,232.5 346.5,234.5 346.5,236.5C 345.5,236.5 344.5,236.5 343.5,236.5C 343.5,234.5 343.5,232.5 343.5,230.5C 344.5,230.5 345.5,230.5 346.5,230.5 Z"/></g>
<g><path style="opacity:1" fill="#4c4c4c" d="M 448.5,230.5 C 449.5,230.5 450.5,230.5 451.5,230.5C 451.5,232.5 451.5,234.5 451.5,236.5C 450.5,236.5 449.5,236.5 448.5,236.5C 448.5,234.5 448.5,232.5 448.5,230.5 Z"/></g>
<g><path style="opacity:1" fill="#565656" d="M 343.5,251.5 C 344.5,251.5 345.5,251.5 346.5,251.5C 346.5,253.5 346.5,255.5 346.5,257.5C 345.5,257.5 344.5,257.5 343.5,257.5C 343.5,255.5 343.5,253.5 343.5,251.5 Z"/></g>
<g><path style="opacity:1" fill="#474747" d="M 451.5,254.5 C 451.5,256.5 451.5,258.5 451.5,260.5C 450.5,260.5 449.5,260.5 448.5,260.5C 448.5,258.5 448.5,256.5 448.5,254.5C 449.5,254.5 450.5,254.5 451.5,254.5 Z"/></g>
<g><path style="opacity:1" fill="#3e3e3f" d="M 346.5,266.5 C 347.5,266.5 348.5,266.5 349.5,266.5C 349.5,267.5 349.5,268.5 349.5,269.5C 348.5,269.5 347.5,269.5 346.5,269.5C 346.5,268.5 346.5,267.5 346.5,266.5 Z"/></g>
<g><path style="opacity:1" fill="#3e3e3e" d="M 448.5,266.5 C 448.5,267.5 448.5,268.5 448.5,269.5C 447.5,269.5 446.5,269.5 445.5,269.5C 445.5,268.5 445.5,267.5 445.5,266.5C 446.5,266.5 447.5,266.5 448.5,266.5 Z"/></g>
<g><path style="opacity:1" fill="#505050" d="M 352.5,275.5 C 353.5,275.5 354.5,275.5 355.5,275.5C 355.5,276.5 355.5,277.5 355.5,278.5C 354.5,278.5 353.5,278.5 352.5,278.5C 352.5,277.5 352.5,276.5 352.5,275.5 Z"/></g>
<g><path style="opacity:1" fill="#505050" d="M 442.5,275.5 C 442.5,276.5 442.5,277.5 442.5,278.5C 441.5,278.5 440.5,278.5 439.5,278.5C 439.5,277.5 439.5,276.5 439.5,275.5C 440.5,275.5 441.5,275.5 442.5,275.5 Z"/></g>
<g><path style="opacity:1" fill="#4f4f50" d="M 364.5,287.5 C 365.5,287.5 366.5,287.5 367.5,287.5C 367.5,288.5 367.5,289.5 367.5,290.5C 366.5,290.5 365.5,290.5 364.5,290.5C 364.5,289.5 364.5,288.5 364.5,287.5 Z"/></g>
<g><path style="opacity:1" fill="#4f4f4f" d="M 430.5,287.5 C 430.5,288.5 430.5,289.5 430.5,290.5C 429.5,290.5 428.5,290.5 427.5,290.5C 427.5,289.5 427.5,288.5 427.5,287.5C 428.5,287.5 429.5,287.5 430.5,287.5 Z"/></g>
<g><path style="opacity:1" fill="#3e3f3e" d="M 373.5,293.5 C 374.5,293.5 375.5,293.5 376.5,293.5C 376.5,294.5 376.5,295.5 376.5,296.5C 375.5,296.5 374.5,296.5 373.5,296.5C 373.5,295.5 373.5,294.5 373.5,293.5 Z"/></g>
<g><path style="opacity:1" fill="#3e3e3e" d="M 421.5,293.5 C 421.5,294.5 421.5,295.5 421.5,296.5C 420.5,296.5 419.5,296.5 418.5,296.5C 418.5,295.5 418.5,294.5 418.5,293.5C 419.5,293.5 420.5,293.5 421.5,293.5 Z"/></g>
<g><path style="opacity:1" fill="#4d4d4d" d="M 382.5,296.5 C 384.5,296.5 386.5,296.5 388.5,296.5C 388.5,297.5 388.5,298.5 388.5,299.5C 386.5,299.5 384.5,299.5 382.5,299.5C 382.5,298.5 382.5,297.5 382.5,296.5 Z"/></g>
<g><path style="opacity:1" fill="#565656" d="M 409.5,296.5 C 409.5,297.5 409.5,298.5 409.5,299.5C 407.5,299.5 405.5,299.5 403.5,299.5C 403.5,298.5 403.5,297.5 403.5,296.5C 405.5,296.5 407.5,296.5 409.5,296.5 Z"/></g>
</svg>
