<?xml version="1.0" encoding="utf-8"?>
<!-- Generator: Adobe Illustrator 21.0.0, SVG Export Plug-In . SVG Version: 6.00 Build 0)  -->
<svg version="1.1" xmlns="http://www.w3.org/2000/svg" xmlns:xlink="http://www.w3.org/1999/xlink" x="0px" y="0px" width="32px"
	 height="32px" viewBox="0 0 32 32" enable-background="new 0 0 32 32" xml:space="preserve">
<g id="icon_Name">
</g>
<g id="icons">
	<path fill="#FFFFFF" d="M16,1C7.715271,1,1,7.715271,1,16s6.715271,15,15,15s15-6.715271,15-15S24.284729,1,16,1z M16,30
		C8.2802734,30,2,23.7197266,2,16S8.2802734,2,16,2s14,6.2802734,14,14S23.7197266,30,16,30z M16,9.1748047
		c-3.7636719,0-6.8251953,3.0615234-6.8251953,6.8251953S12.2363281,22.8251953,16,22.8251953S22.8251953,19.7636719,22.8251953,16
		S19.7636719,9.1748047,16,9.1748047z M16,22c-3.3085938,0-6-2.6914062-6-6s2.6914062-6,6-6s6,2.6914062,6,6S19.3085938,22,16,22z"
		/>
</g>
</svg>
