<?xml version="1.0" encoding="UTF-8"?><svg xmlns="http://www.w3.org/2000/svg" viewBox="0 0 108 80"><defs><style>.cls-1{fill:#686868;}.cls-2{fill:#1c1b1c;}.cls-3{fill:#2a2a2a;}.cls-4{fill:#525252;}</style></defs><g id="padding_box"><rect class="cls-2" width="108" height="80"/><rect class="cls-3" x="8" y="8" width="92" height="64"/></g><g id="icons"><rect class="cls-1" x="79" y="48" width="2" height="17"/><rect class="cls-1" x="84" y="54" width="2" height="11"/><rect class="cls-1" x="89" y="60" width="2" height="5"/><rect class="cls-1" x="74" y="57" width="2" height="8"/><rect class="cls-1" x="69" y="50" width="2" height="15"/><polygon class="cls-4" points="65 68 65 44 64 44 64 68 64 69 65 69 96 69 96 68 65 68"/><path class="cls-1" d="M78,27V11.42c-8.31,.16-15,6.94-15,15.28s6.85,15.3,15.3,15.3,15.12-6.69,15.28-15h-15.58Z"/><path class="cls-4" d="M95.42,25c0-8.45-6.85-15.3-15.3-15.3-.04,0-.08,0-.12,0v15.29h15.42Z"/><rect class="cls-1" x="12" y="60" width="42" height="1"/><rect class="cls-1" x="12" y="46" width="42" height="11"/><rect class="cls-1" x="12" y="64" width="42" height="1"/><rect class="cls-1" x="12" y="68" width="42" height="1"/><polygon class="cls-1" points="14.35 37.35 13.65 36.65 26 24.29 34 32.29 52.15 14.15 52.85 14.85 34 33.71 26 25.71 14.35 37.35"/><polygon class="cls-1" points="13 38 13 11 12 11 12 38 12 39 13 39 54 39 54 38 13 38"/></g></svg>