<?xml version="1.0" encoding="UTF-8"?>
<!DOCTYPE svg PUBLIC "-//W3C//DTD SVG 1.1//EN" "http://www.w3.org/Graphics/SVG/1.1/DTD/svg11.dtd">
<svg xmlns="http://www.w3.org/2000/svg" version="1.1" width="296px" height="344px" style="shape-rendering:geometricPrecision; text-rendering:geometricPrecision; image-rendering:optimizeQuality; fill-rule:evenodd; clip-rule:evenodd" xmlns:xlink="http://www.w3.org/1999/xlink">
<g><path style="opacity:1" fill="#171717" d="M -0.5,-0.5 C 98.1667,-0.5 196.833,-0.5 295.5,-0.5C 295.5,114.167 295.5,228.833 295.5,343.5C 294.833,343.5 294.167,343.5 293.5,343.5C 293.5,229.167 293.5,114.833 293.5,0.5C 196.5,0.5 99.5,0.5 2.5,0.5C 2.5,114.833 2.5,229.167 2.5,343.5C 1.5,343.5 0.5,343.5 -0.5,343.5C -0.5,228.833 -0.5,114.167 -0.5,-0.5 Z"/></g>
<g><path style="opacity:1" fill="#272727" d="M 293.5,343.5 C 196.5,343.5 99.5,343.5 2.5,343.5C 2.5,229.167 2.5,114.833 2.5,0.5C 99.5,0.5 196.5,0.5 293.5,0.5C 293.5,114.833 293.5,229.167 293.5,343.5 Z"/></g>
<g><path style="opacity:1" fill="#696969" d="M 56.5,117.5 C 117.5,117.5 178.5,117.5 239.5,117.5C 239.5,118.5 239.5,119.5 239.5,120.5C 178.5,120.5 117.5,120.5 56.5,120.5C 56.5,119.5 56.5,118.5 56.5,117.5 Z"/></g>
<g><path style="opacity:1" fill="#696969" d="M 56.5,96.5 C 117.5,96.5 178.5,96.5 239.5,96.5C 239.5,97.5 239.5,98.5 239.5,99.5C 178.5,99.5 117.5,99.5 56.5,99.5C 56.5,98.5 56.5,97.5 56.5,96.5 Z"/></g>
<g><path style="opacity:1" fill="#696969" d="M 56.5,75.5 C 117.5,75.5 178.5,75.5 239.5,75.5C 239.5,76.5 239.5,77.5 239.5,78.5C 178.5,78.5 117.5,78.5 56.5,78.5C 56.5,77.5 56.5,76.5 56.5,75.5 Z"/></g>
<g><path style="opacity:1" fill="#696969" d="M 56.5,54.5 C 117.5,54.5 178.5,54.5 239.5,54.5C 239.5,55.5 239.5,56.5 239.5,57.5C 178.5,57.5 117.5,57.5 56.5,57.5C 56.5,56.5 56.5,55.5 56.5,54.5 Z"/></g>
<g><path style="opacity:1" fill="#696969" d="M 56.5,159.5 C 69.5,159.5 82.5,159.5 95.5,159.5C 95.5,167.5 95.5,175.5 95.5,183.5C 82.5,183.5 69.5,183.5 56.5,183.5C 56.5,175.5 56.5,167.5 56.5,159.5 Z"/></g>
<g><path style="opacity:1" fill="#696969" d="M 128.5,159.5 C 141.5,159.5 154.5,159.5 167.5,159.5C 167.5,167.5 167.5,175.5 167.5,183.5C 154.5,183.5 141.5,183.5 128.5,183.5C 128.5,175.5 128.5,167.5 128.5,159.5 Z"/></g>
<g><path style="opacity:1" fill="#696969" d="M 200.5,159.5 C 213.5,159.5 226.5,159.5 239.5,159.5C 239.5,167.5 239.5,175.5 239.5,183.5C 226.5,183.5 213.5,183.5 200.5,183.5C 200.5,175.5 200.5,167.5 200.5,159.5 Z"/></g>
</svg>
