<?xml version="1.0" encoding="utf-8"?>
<!-- Generator: Adobe Illustrator 21.0.0, SVG Export Plug-In . SVG Version: 6.00 Build 0)  -->
<svg version="1.1" xmlns="http://www.w3.org/2000/svg" xmlns:xlink="http://www.w3.org/1999/xlink" x="0px" y="0px" width="32px"
	 height="32px" viewBox="0 0 32 32" enable-background="new 0 0 32 32" xml:space="preserve">
<g id="icon_Name">
</g>
<g id="icons">
	<path fill="#FFFFFF" d="M24.6821899,9.4414673c-0.0117188,0.1060791-0.0738525,0.1984863-0.1647339,0.2539673l-3.7640991,3.2883911
		c-0.0537109,0.0318604-0.1142578,0.0487671-0.1764526,0.0487671c-0.052124,0-0.1060181-0.0119019-0.1547241-0.0370483
		l-2.5805664-1.2911377l-0.8607788,4.303772l4.303772,6.0253296l0.8607788,4.303772h1.5786133
		c0.0907593,0,0.1781616,0.0369873,0.2437744,0.1008911l0.421936,0.421936
		c0.0773315,0.0790405,0.1143188,0.1900635,0.0958862,0.2991943c-0.0168457,0.109314-0.0874634,0.2034912-0.1848755,0.2521973
		l-2.659729,1.329895c-0.0487061,0.0250854-0.102417,0.0369873-0.1546021,0.0369873
		c-0.0454712,0-0.0891724-0.0084229-0.1311646-0.0270386c-0.0924683-0.0368042-0.1630249-0.1143188-0.1950684-0.208313
		l-1.5970459-4.7880249l-3.4429932-4.303772l-2.5822754,4.303772l-3.4430542,2.5822754l0.7496948,1.4996338
		c0.0673218,0.1326904,0.0404663,0.2941895-0.0638428,0.3983154l-0.4420776,0.4405518
		c-0.0673218,0.0673218-0.156311,0.1008911-0.2437744,0.1008911S9.918335,28.743103,9.8510132,28.6757812l-2.0661621-2.0661621
		c-0.0688477-0.0688477-0.105835-0.1647339-0.0991211-0.262207c0.0049438-0.0975952,0.052124-0.1900635,0.1276855-0.2504883
		l4.0029297-3.2026978l1.7232056-5.8637695l-0.001709-6.1867676l-2.5822754,2.5822144v3.0983887
		c0,0.1900635-0.1546021,0.3446655-0.3446655,0.3446655h-0.2335815c-0.1647949,0-0.3060913-0.1160278-0.3379517-0.2773438
		l-0.7733154-3.8701172c-0.0203247-0.0991821,0.0050049-0.2033081,0.0688477-0.2823486l4.0987549-4.3096924
		C13.4990845,8.0469971,13.5983887,8,13.7025757,8h3.135376c0.0907593,0,0.1781616,0.0369873,0.2437744,0.1008911
		l3.5103149,2.9142456l3.2211304-2.2965088c0.050293-0.0251465,0.102417-0.0369873,0.1546021-0.0369873
		c0.0891724,0,0.1764526,0.0352783,0.2437744,0.1008301l0.37323,0.37323
		C24.6588135,9.2314453,24.6956177,9.3356323,24.6821899,9.4414673z M15.5,6.9249878
		c1.3387451,0,2.4249878-1.0862427,2.4249878-2.4249878c0-1.3388062-1.0862427-2.4249878-2.4249878-2.4249878
		S13.0750122,3.1611938,13.0750122,4.5C13.0750122,5.8387451,14.1612549,6.9249878,15.5,6.9249878z"/>
</g>
</svg>
